<mxfile host="app.diagrams.net" modified="2023-08-16T10:41:17.862Z" agent="Mozilla/5.0 (Windows NT 10.0; Win64; x64) AppleWebKit/537.36 (KHTML, like Gecko) Chrome/109.0.0.0 Safari/537.36" version="21.6.8" etag="ajdt5YsBUEtA-oVSmfmz" type="github">
  <diagram name="Страница — 1" id="AFJmq4FdGJNyo1W-ieF_">
    <mxGraphModel>
      <root>
        <mxCell id="0" />
        <mxCell id="1" parent="0" />
      </root>
    </mxGraphModel>
  </diagram>
</mxfile>
